<svg width="21" height="21" viewBox="0 0 21 21" fill="none" xmlns="http://www.w3.org/2000/svg">
<path fill-rule="evenodd" clip-rule="evenodd" d="M9.70461 1.36523C9.44496 1.36523 9.23447 1.57573 9.23447 1.83538V3.60849C8.50183 3.78957 7.80043 4.07938 7.15365 4.46826L5.90411 3.21549C5.81598 3.12713 5.69634 3.07743 5.57154 3.07735C5.44674 3.07727 5.32704 3.12681 5.23879 3.21506L3.2485 5.20535C3.16026 5.29359 3.11072 5.4133 3.1108 5.53809C3.11088 5.66289 3.16057 5.78253 3.24893 5.87066L4.5017 7.1202C4.11283 7.76698 3.82302 8.46839 3.64193 9.20102H1.86883C1.60917 9.20102 1.39868 9.41151 1.39868 9.67117V12.0219C1.39868 12.2816 1.60917 12.492 1.86883 12.492H3.64193C3.82302 13.2247 4.11283 13.9261 4.5017 14.5729L3.24893 15.8224C3.16057 15.9105 3.11088 16.0302 3.1108 16.155C3.11072 16.2798 3.16026 16.3995 3.2485 16.4877L5.23879 18.478C5.32704 18.5663 5.44674 18.6158 5.57154 18.6157C5.69634 18.6156 5.81598 18.5659 5.90411 18.4776L7.15365 17.2248C7.80043 17.6137 8.50183 17.9035 9.23447 18.0846V19.8577C9.23447 20.1173 9.44496 20.3278 9.70461 20.3278H12.0553C12.315 20.3278 12.5255 20.1173 12.5255 19.8577V18.0846C13.2581 17.9035 13.9595 17.6137 14.6063 17.2248L15.8559 18.4776C15.944 18.5659 16.0636 18.6156 16.1884 18.6157C16.3132 18.6158 16.4329 18.5663 16.5212 18.478L18.5115 16.4877C18.5997 16.3995 18.6492 16.2798 18.6492 16.155C18.6491 16.0302 18.5994 15.9105 18.511 15.8224L17.2583 14.5729C17.6471 13.9261 17.9369 13.2247 18.118 12.492H19.8911C20.1508 12.492 20.3613 12.2816 20.3613 12.0219V9.67117C20.3613 9.41151 20.1508 9.20102 19.8911 9.20102H18.118C17.9369 8.46839 17.6471 7.76698 17.2583 7.1202L18.511 5.87066C18.5994 5.78253 18.6491 5.66289 18.6492 5.53809C18.6492 5.4133 18.5997 5.29359 18.5115 5.20535L16.5212 3.21506C16.4329 3.12681 16.3132 3.07727 16.1884 3.07735C16.0636 3.07743 15.944 3.12713 15.8559 3.21549L14.6063 4.46826C13.9595 4.07938 13.2581 3.78957 12.5255 3.60849V1.83538C12.5255 1.57573 12.315 1.36523 12.0553 1.36523H9.70461ZM7.58895 10.8465C7.58895 9.02895 9.06239 7.5555 10.88 7.5555C12.6976 7.5555 14.171 9.02895 14.171 10.8465C14.171 12.6641 12.6976 14.1376 10.88 14.1376C9.06239 14.1376 7.58895 12.6641 7.58895 10.8465Z" fill="#564848"/>
</svg>
