<svg width="414" height="81" viewBox="0 0 414 81" fill="none" xmlns="http://www.w3.org/2000/svg">
<path d="M93.4979 21.4079L85.3766 37.4633L79.4875 35.058L87.6089 19.0027L93.4979 21.4079Z" fill="white"/>
<path d="M136.747 18.2813L120.09 11.4783L122.961 5.80186L139.618 12.6049L136.747 18.2813Z" fill="white"/>
<path fill-rule="evenodd" clip-rule="evenodd" d="M88.8335 53.4045C83.5302 39.2021 91.7113 23.0286 107.107 17.2799C122.502 11.5313 139.281 18.3844 144.584 32.5868C149.888 46.7892 141.706 62.9627 126.311 68.7113C110.916 74.46 94.1367 67.6068 88.8335 53.4045ZM113.13 47.5877L106.195 29.0153L112.389 26.7022L117.251 39.7224L121.732 33.5872L127.069 36.8929L118.896 48.0841C118.184 49.0587 116.973 49.6056 115.759 49.501C114.544 49.3965 113.53 48.6581 113.13 47.5877Z" fill="white"/>
<path d="M144.004 32.7409H134.863V58.0925H131.133V32.7409H122.012V29.655H144.004V32.7409Z" fill="#C4ADAD"/>
<path d="M158.652 46.5886H151.973V58.0925H148.203V29.655H157.617C160.82 29.655 163.281 30.3842 165 31.8425C166.732 33.3008 167.598 35.4232 167.598 38.2097C167.598 39.9805 167.116 41.5235 166.152 42.8386C165.202 44.1537 163.874 45.1368 162.168 45.7878L168.848 57.8581V58.0925H164.824L158.652 46.5886ZM151.973 43.5222H157.734C159.596 43.5222 161.074 43.0404 162.168 42.0769C163.275 41.1133 163.828 39.8243 163.828 38.2097C163.828 36.4519 163.301 35.1042 162.246 34.1667C161.204 33.2292 159.694 32.7539 157.715 32.7409H151.973V43.5222ZM188.574 50.6706H176.66L173.984 58.0925H170.117L180.977 29.655H184.258L195.137 58.0925H191.289L188.574 50.6706ZM177.793 47.5847H187.461L182.617 34.2839L177.793 47.5847ZM219.648 49.069C219.297 52.0769 218.184 54.4011 216.309 56.0417C214.447 57.6693 211.966 58.4831 208.867 58.4831C205.508 58.4831 202.812 57.2787 200.781 54.8698C198.763 52.461 197.754 49.2383 197.754 45.2019V42.4675C197.754 39.8243 198.223 37.5 199.16 35.4948C200.111 33.4896 201.452 31.9532 203.184 30.8855C204.915 29.8047 206.921 29.2644 209.199 29.2644C212.22 29.2644 214.642 30.1107 216.465 31.8034C218.288 33.4831 219.349 35.8138 219.648 38.7956H215.879C215.553 36.53 214.844 34.8894 213.75 33.8737C212.669 32.8581 211.152 32.3503 209.199 32.3503C206.803 32.3503 204.922 33.2357 203.555 35.0065C202.201 36.7774 201.523 39.2969 201.523 42.5651V45.319C201.523 48.405 202.168 50.8594 203.457 52.6823C204.746 54.5052 206.549 55.4167 208.867 55.4167C210.951 55.4167 212.546 54.948 213.652 54.0105C214.772 53.0599 215.514 51.4128 215.879 49.069H219.648ZM232.012 44.8698L228.535 48.4831V58.0925H224.785V29.655H228.535V43.7175L241.172 29.655H245.703L234.512 42.2136L246.582 58.0925H242.09L232.012 44.8698ZM265.938 44.948H253.613V55.0261H267.93V58.0925H249.863V29.655H267.734V32.7409H253.613V41.8815H265.938V44.948ZM283.027 46.5886H276.348V58.0925H272.578V29.655H281.992C285.195 29.655 287.656 30.3842 289.375 31.8425C291.107 33.3008 291.973 35.4232 291.973 38.2097C291.973 39.9805 291.491 41.5235 290.527 42.8386C289.577 44.1537 288.249 45.1368 286.543 45.7878L293.223 57.8581V58.0925H289.199L283.027 46.5886ZM276.348 43.5222H282.109C283.971 43.5222 285.449 43.0404 286.543 42.0769C287.65 41.1133 288.203 39.8243 288.203 38.2097C288.203 36.4519 287.676 35.1042 286.621 34.1667C285.579 33.2292 284.069 32.7539 282.09 32.7409H276.348V43.5222Z" fill="white"/>
</svg>
