<svg width="414" height="81" viewBox="0 0 414 81" fill="none" xmlns="http://www.w3.org/2000/svg">
<path d="M94.498 21.4079L86.3766 37.4633L80.4876 35.058L88.6089 19.0027L94.498 21.4079Z" fill="#A58E8E"/>
<path d="M137.747 18.2813L121.09 11.4783L123.962 5.80186L140.618 12.6049L137.747 18.2813Z" fill="#A58E8E"/>
<path fill-rule="evenodd" clip-rule="evenodd" d="M89.8335 53.4045C84.5303 39.2021 92.7114 23.0286 108.107 17.2799C123.502 11.5313 140.281 18.3844 145.584 32.5868C150.888 46.7892 142.706 62.9627 127.311 68.7113C111.916 74.46 95.1368 67.6068 89.8335 53.4045ZM114.13 47.5877L107.195 29.0153L113.389 26.7022L118.251 39.7224L122.732 33.5872L128.069 36.8929L119.896 48.0841C119.184 49.0587 117.973 49.6056 116.759 49.501C115.544 49.3965 114.53 48.6581 114.13 47.5877Z" fill="#A58E8E"/>
<path d="M145.004 32.7409H135.863V58.0925H132.133V32.7409H123.012V29.655H145.004V32.7409Z" fill="white"/>
<path d="M159.652 46.5886H152.973V58.0925H149.203V29.655H158.617C161.82 29.655 164.281 30.3842 166 31.8425C167.732 33.3008 168.598 35.4232 168.598 38.2097C168.598 39.9805 168.116 41.5235 167.152 42.8386C166.202 44.1537 164.874 45.1368 163.168 45.7878L169.848 57.8581V58.0925H165.824L159.652 46.5886ZM152.973 43.5222H158.734C160.596 43.5222 162.074 43.0404 163.168 42.0769C164.275 41.1133 164.828 39.8243 164.828 38.2097C164.828 36.4519 164.301 35.1042 163.246 34.1667C162.204 33.2292 160.694 32.7539 158.715 32.7409H152.973V43.5222ZM189.574 50.6706H177.66L174.984 58.0925H171.117L181.977 29.655H185.258L196.137 58.0925H192.289L189.574 50.6706ZM178.793 47.5847H188.461L183.617 34.2839L178.793 47.5847ZM220.648 49.069C220.297 52.0769 219.184 54.4011 217.309 56.0417C215.447 57.6693 212.966 58.4831 209.867 58.4831C206.508 58.4831 203.812 57.2787 201.781 54.8698C199.763 52.461 198.754 49.2383 198.754 45.2019V42.4675C198.754 39.8243 199.223 37.5 200.16 35.4948C201.111 33.4896 202.452 31.9532 204.184 30.8855C205.915 29.8047 207.921 29.2644 210.199 29.2644C213.22 29.2644 215.642 30.1107 217.465 31.8034C219.288 33.4831 220.349 35.8138 220.648 38.7956H216.879C216.553 36.53 215.844 34.8894 214.75 33.8737C213.669 32.8581 212.152 32.3503 210.199 32.3503C207.803 32.3503 205.922 33.2357 204.555 35.0065C203.201 36.7774 202.523 39.2969 202.523 42.5651V45.319C202.523 48.405 203.168 50.8594 204.457 52.6823C205.746 54.5052 207.549 55.4167 209.867 55.4167C211.951 55.4167 213.546 54.948 214.652 54.0105C215.772 53.0599 216.514 51.4128 216.879 49.069H220.648ZM233.012 44.8698L229.535 48.4831V58.0925H225.785V29.655H229.535V43.7175L242.172 29.655H246.703L235.512 42.2136L247.582 58.0925H243.09L233.012 44.8698ZM266.938 44.948H254.613V55.0261H268.93V58.0925H250.863V29.655H268.734V32.7409H254.613V41.8815H266.938V44.948ZM284.027 46.5886H277.348V58.0925H273.578V29.655H282.992C286.195 29.655 288.656 30.3842 290.375 31.8425C292.107 33.3008 292.973 35.4232 292.973 38.2097C292.973 39.9805 292.491 41.5235 291.527 42.8386C290.577 44.1537 289.249 45.1368 287.543 45.7878L294.223 57.8581V58.0925H290.199L284.027 46.5886ZM277.348 43.5222H283.109C284.971 43.5222 286.449 43.0404 287.543 42.0769C288.65 41.1133 289.203 39.8243 289.203 38.2097C289.203 36.4519 288.676 35.1042 287.621 34.1667C286.579 33.2292 285.069 32.7539 283.09 32.7409H277.348V43.5222Z" fill="#A58E8E"/>
</svg>
