<svg width="91" height="86" viewBox="0 0 91 86" fill="none" xmlns="http://www.w3.org/2000/svg">
<path d="M25.8619 7.29954L7.76006 24.3529L1.36781 18.3154L19.4697 1.26206L25.8619 7.29954Z" fill="#A58E8E"/>
<path d="M82.7728 24.401L64.6928 7.32443L71.0928 1.29515L89.1728 18.3717L82.7728 24.401Z" fill="#A58E8E"/>
<path fill-rule="evenodd" clip-rule="evenodd" d="M4.54731 46.9316C4.56091 25.7259 22.796 8.54706 45.2766 8.56148C67.7571 8.57589 85.9702 25.7781 85.9566 46.9838C85.943 68.1894 67.7079 85.3683 45.2273 85.3539C22.7468 85.3395 4.53372 68.1372 4.54731 46.9316ZM38.4651 51.2196L38.4829 23.489L47.5284 23.4948L47.5159 42.9352L56.1977 37.0937L61.4508 44.0403L45.6144 54.6957C44.2352 55.6237 42.4218 55.7468 40.9159 55.0145C39.41 54.2823 38.4641 52.8176 38.4651 51.2196Z" fill="#A58E8E"/>
</svg>
